<mxfile host="app.diagrams.net" agent="Mozilla/5.0 (X11; Linux x86_64; rv:136.0) Gecko/20100101 Firefox/136.0" version="26.1.0">
  <diagram name="Page-1" id="TnVFVhNhGtzmBkt-11gd">
    <mxGraphModel dx="1094" dy="662" grid="1" gridSize="10" guides="1" tooltips="1" connect="1" arrows="1" fold="1" page="1" pageScale="1" pageWidth="850" pageHeight="1100" math="0" shadow="0">
      <root>
        <mxCell id="0" />
        <mxCell id="1" parent="0" />
        <mxCell id="equvjjTKpSBCBUe4BVu5-2" value="&lt;div&gt;Stego Image&lt;/div&gt;" style="text;html=1;align=center;verticalAlign=middle;whiteSpace=wrap;rounded=0;" vertex="1" parent="1">
          <mxGeometry x="120" y="220" width="90" height="30" as="geometry" />
        </mxCell>
        <mxCell id="equvjjTKpSBCBUe4BVu5-10" value="" style="edgeStyle=orthogonalEdgeStyle;rounded=0;orthogonalLoop=1;jettySize=auto;html=1;" edge="1" parent="1" source="equvjjTKpSBCBUe4BVu5-3" target="equvjjTKpSBCBUe4BVu5-6">
          <mxGeometry relative="1" as="geometry" />
        </mxCell>
        <mxCell id="equvjjTKpSBCBUe4BVu5-3" value="&lt;div&gt;Program&lt;/div&gt;&lt;div&gt;&lt;br&gt;&lt;/div&gt;" style="text;html=1;align=center;verticalAlign=middle;resizable=0;points=[];autosize=1;strokeColor=none;fillColor=none;" vertex="1" parent="1">
          <mxGeometry x="260" y="220" width="70" height="40" as="geometry" />
        </mxCell>
        <mxCell id="equvjjTKpSBCBUe4BVu5-4" value="&lt;div&gt;Extracted Data&lt;/div&gt;" style="text;html=1;align=center;verticalAlign=middle;resizable=0;points=[];autosize=1;strokeColor=none;fillColor=none;" vertex="1" parent="1">
          <mxGeometry x="560" y="190" width="100" height="30" as="geometry" />
        </mxCell>
        <mxCell id="equvjjTKpSBCBUe4BVu5-5" value="Stego Detected" style="text;html=1;align=center;verticalAlign=middle;resizable=0;points=[];autosize=1;strokeColor=none;fillColor=none;" vertex="1" parent="1">
          <mxGeometry x="390" y="190" width="110" height="30" as="geometry" />
        </mxCell>
        <mxCell id="equvjjTKpSBCBUe4BVu5-6" value="&lt;div&gt;Stego Not Detected&lt;/div&gt;" style="text;html=1;align=center;verticalAlign=middle;resizable=0;points=[];autosize=1;strokeColor=none;fillColor=none;" vertex="1" parent="1">
          <mxGeometry x="380" y="240" width="130" height="30" as="geometry" />
        </mxCell>
        <mxCell id="equvjjTKpSBCBUe4BVu5-7" value="&lt;div&gt;End&lt;/div&gt;" style="text;html=1;align=center;verticalAlign=middle;resizable=0;points=[];autosize=1;strokeColor=none;fillColor=none;" vertex="1" parent="1">
          <mxGeometry x="760" y="225" width="40" height="30" as="geometry" />
        </mxCell>
        <mxCell id="equvjjTKpSBCBUe4BVu5-8" value="Results" style="text;html=1;align=center;verticalAlign=middle;resizable=0;points=[];autosize=1;strokeColor=none;fillColor=none;" vertex="1" parent="1">
          <mxGeometry x="680" y="225" width="60" height="30" as="geometry" />
        </mxCell>
        <mxCell id="equvjjTKpSBCBUe4BVu5-9" value="" style="endArrow=classic;html=1;rounded=0;exitX=1;exitY=0.5;exitDx=0;exitDy=0;entryX=-0.057;entryY=0.325;entryDx=0;entryDy=0;entryPerimeter=0;" edge="1" parent="1" source="equvjjTKpSBCBUe4BVu5-2" target="equvjjTKpSBCBUe4BVu5-3">
          <mxGeometry width="50" height="50" relative="1" as="geometry">
            <mxPoint x="400" y="370" as="sourcePoint" />
            <mxPoint x="450" y="320" as="targetPoint" />
          </mxGeometry>
        </mxCell>
        <mxCell id="equvjjTKpSBCBUe4BVu5-11" value="" style="endArrow=classic;html=1;rounded=0;exitX=1;exitY=0.225;exitDx=0;exitDy=0;exitPerimeter=0;" edge="1" parent="1" source="equvjjTKpSBCBUe4BVu5-3" target="equvjjTKpSBCBUe4BVu5-5">
          <mxGeometry width="50" height="50" relative="1" as="geometry">
            <mxPoint x="400" y="370" as="sourcePoint" />
            <mxPoint x="450" y="320" as="targetPoint" />
          </mxGeometry>
        </mxCell>
        <mxCell id="equvjjTKpSBCBUe4BVu5-12" value="" style="endArrow=classic;html=1;rounded=0;" edge="1" parent="1" source="equvjjTKpSBCBUe4BVu5-5" target="equvjjTKpSBCBUe4BVu5-4">
          <mxGeometry width="50" height="50" relative="1" as="geometry">
            <mxPoint x="500" y="203" as="sourcePoint" />
            <mxPoint x="560" y="190" as="targetPoint" />
          </mxGeometry>
        </mxCell>
        <mxCell id="equvjjTKpSBCBUe4BVu5-13" value="" style="endArrow=classic;html=1;rounded=0;entryX=0.05;entryY=0.633;entryDx=0;entryDy=0;entryPerimeter=0;" edge="1" parent="1" source="equvjjTKpSBCBUe4BVu5-6" target="equvjjTKpSBCBUe4BVu5-8">
          <mxGeometry width="50" height="50" relative="1" as="geometry">
            <mxPoint x="520" y="250" as="sourcePoint" />
            <mxPoint x="580" y="250" as="targetPoint" />
          </mxGeometry>
        </mxCell>
        <mxCell id="equvjjTKpSBCBUe4BVu5-14" value="" style="endArrow=classic;html=1;rounded=0;exitX=0.99;exitY=0.533;exitDx=0;exitDy=0;exitPerimeter=0;entryX=0.283;entryY=0.167;entryDx=0;entryDy=0;entryPerimeter=0;" edge="1" parent="1" source="equvjjTKpSBCBUe4BVu5-4" target="equvjjTKpSBCBUe4BVu5-8">
          <mxGeometry width="50" height="50" relative="1" as="geometry">
            <mxPoint x="520" y="225" as="sourcePoint" />
            <mxPoint x="580" y="225" as="targetPoint" />
          </mxGeometry>
        </mxCell>
        <mxCell id="equvjjTKpSBCBUe4BVu5-15" value="" style="endArrow=classic;html=1;rounded=0;" edge="1" parent="1" source="equvjjTKpSBCBUe4BVu5-8" target="equvjjTKpSBCBUe4BVu5-7">
          <mxGeometry width="50" height="50" relative="1" as="geometry">
            <mxPoint x="530" y="235" as="sourcePoint" />
            <mxPoint x="590" y="235" as="targetPoint" />
            <Array as="points" />
          </mxGeometry>
        </mxCell>
      </root>
    </mxGraphModel>
  </diagram>
</mxfile>
